<?xml version="1.0" encoding="UTF-8"?>
<svg version="1.1" xmlns="http://www.w3.org/2000/svg" width="1200" height="1200">
<path d="M0 0 C116.82 0 233.64 0 354 0 C354 29.7 354 59.4 354 90 C237.18 90 120.36 90 0 90 C0 60.3 0 30.6 0 0 Z " fill="#0D1F70" transform="translate(423,847)"/>
<path d="M0 0 C138.6 0 277.2 0 420 0 C420.0928125 63.669375 420.0928125 63.669375 420.1875 128.625 C420.21481201 141.99854004 420.24212402 155.37208008 420.27026367 169.15087891 C420.28381348 185.55541992 420.28381348 185.55541992 420.28633118 193.24935913 C420.28911187 198.59176692 420.30004389 203.93408212 420.31672668 209.27645874 C420.33804826 216.11459148 420.34344232 222.952593 420.33921683 229.79075694 C420.34009896 232.28560576 420.3459464 234.78045964 420.35764539 237.27528119 C420.62918331 298.05952215 399.66359329 356.03098111 364 405 C363.60474121 405.54543457 363.20948242 406.09086914 362.80224609 406.65283203 C357.46402584 413.98589621 351.8145649 421.04143128 346 428 C345.17628906 429.010625 344.35257813 430.02125 343.50390625 431.0625 C337.15231675 438.75527558 330.299949 445.88141635 323.25 452.9375 C322.36280273 453.82550293 321.47560547 454.71350586 320.56152344 455.62841797 C315.53121961 460.61634747 310.41187802 465.42876797 305 470 C304.39075684 470.51602783 303.78151367 471.03205566 303.15380859 471.5637207 C277.27335013 493.27978437 249.38787069 510.5219718 218 523 C216.48792969 523.63808594 216.48792969 523.63808594 214.9453125 524.2890625 C207.58505473 526.06567644 201.20170387 523.18968981 194.5625 520.25 C193.66289551 519.85586914 192.76329102 519.46173828 191.83642578 519.05566406 C173.14076068 510.71309509 155.47328803 501.18056162 139 489 C138.37673828 488.53964355 137.75347656 488.07928711 137.11132812 487.60498047 C133.35142171 484.8056416 129.66350234 481.92489299 126 479 C125.0821875 478.27554687 124.164375 477.55109375 123.21875 476.8046875 C111.88909559 467.72143008 101.55263654 457.6517406 91.25 447.4375 C90.3748877 446.57543945 89.49977539 445.71337891 88.59814453 444.82519531 C82.62850839 438.86345999 77.2627128 432.58757826 72 426 C70.92783488 424.71744602 69.85153142 423.43833028 68.76953125 422.1640625 C29.20802458 375.08173147 -0.30502483 311.23666956 -0.12025452 248.92684937 C-0.12111053 247.85914307 -0.12196655 246.79143677 -0.12284851 245.69137573 C-0.12449475 242.12675267 -0.11899467 238.56217731 -0.11352539 234.99755859 C-0.11321887 232.39314081 -0.11335287 229.78872294 -0.11389065 227.18430519 C-0.11442051 220.92846783 -0.10982074 214.67264492 -0.10338932 208.41681127 C-0.096168 201.17476508 -0.0953934 193.93272388 -0.09460449 186.69067383 C-0.08936164 167.58544694 -0.07540045 148.48022325 -0.0625 129.375 C-0.041875 86.68125 -0.02125 43.9875 0 0 Z M14 14 C13.9175 53.868125 13.835 93.73625 13.75 134.8125 C13.71358398 147.35741455 13.67716797 159.9023291 13.63964844 172.82739258 C13.62626298 184.16469355 13.62626298 184.16469355 13.6182251 195.5019989 C13.61452881 200.51505248 13.5996614 205.52793314 13.57769775 210.54093933 C13.54991508 216.9689304 13.54209824 223.39667616 13.5477109 229.82472169 C13.54654022 232.16280701 13.53881586 234.50090244 13.52313948 236.83893549 C13.38301757 258.78701731 15.93527015 280.39371381 21.625 301.625 C21.7909668 302.25657013 21.95693359 302.88814026 22.12792969 303.53884888 C26.98315336 321.90734194 34.13600683 339.45729118 43.05859375 356.21875 C43.98837889 357.97801151 44.88507884 359.75462997 45.78125 361.53125 C57.69860644 384.96551408 73.37359172 405.83176544 90.6875 425.50830078 C91.87069743 426.8530434 93.04526505 428.20536726 94.21875 429.55859375 C103.39072899 439.97974152 113.26167315 450.18189479 124 459 C124.79664063 459.66733154 124.79664063 459.66733154 125.609375 460.34814453 C139.61482194 472.07546188 154.23133279 482.75629853 170 492 C170.59570801 492.35658691 171.19141602 492.71317383 171.80517578 493.08056641 C179.66386209 497.77380723 187.63980272 501.90500618 196.0625 505.5 C196.8477002 505.83837891 197.63290039 506.17675781 198.44189453 506.52539062 C205.35703876 509.38560442 210.29892527 510.89792145 217.51953125 508.04296875 C219.62627028 507.11142204 221.72360996 506.15841039 223.8125 505.1875 C224.91746826 504.68629639 226.02243652 504.18509277 227.16088867 503.66870117 C255.26329425 490.73202696 280.19587879 472.81497668 303 452 C304.70805031 450.47884881 306.41638188 448.95801337 308.125 447.4375 C314.42578744 441.75791696 320.39410887 435.86598376 325.9140625 429.421875 C327.53642853 427.53822905 329.17722435 425.67935764 330.8359375 423.828125 C348.12656499 404.40493327 362.61097269 382.84390268 375 360 C375.31356445 359.4234668 375.62712891 358.84693359 375.95019531 358.25292969 C388.16359267 335.5461575 396.11128839 311.3225385 401.75 286.25 C401.94891846 285.37649902 402.14783691 284.50299805 402.3527832 283.60302734 C405.92354732 266.9762261 406.2830989 250.59899085 406.22705078 233.67163086 C406.22643691 231.2265578 406.22670713 228.78148438 406.2277813 226.33641148 C406.22822963 219.8358692 406.21670541 213.33540175 406.20256042 206.83487701 C406.19110286 200.71710495 406.19063052 194.59935035 406.18920898 188.48156738 C406.17874765 170.63353515 406.15082512 152.78551661 406.125 134.9375 C406.063125 75.0734375 406.063125 75.0734375 406 14 C276.64 14 147.28 14 14 14 Z " fill="#F22B0C" transform="translate(390,204)"/>
<path d="M0 0 C1.32 0 2.64 0 4 0 C4.495 1.98 4.495 1.98 5 4 C5.62567871 3.99476318 6.25135742 3.98952637 6.89599609 3.98413086 C9.72232057 3.96338382 12.54862905 3.95034714 15.375 3.9375 C16.85226562 3.92493164 16.85226562 3.92493164 18.359375 3.91210938 C19.77089844 3.90727539 19.77089844 3.90727539 21.2109375 3.90234375 C22.51490479 3.89448853 22.51490479 3.89448853 23.84521484 3.88647461 C26 4 26 4 28 5 C28.02683987 7.97922593 28.04676037 10.95821295 28.0625 13.9375 C28.07087891 14.78763672 28.07925781 15.63777344 28.08789062 16.51367188 C28.09111328 17.32255859 28.09433594 18.13144531 28.09765625 18.96484375 C28.10289307 19.7137085 28.10812988 20.46257324 28.11352539 21.23413086 C28 23 28 23 27 24 C25.36527118 24.08700342 23.72685945 24.10701063 22.08984375 24.09765625 C21.10048828 24.09443359 20.11113281 24.09121094 19.09179688 24.08789062 C18.05087891 24.07951172 17.00996094 24.07113281 15.9375 24.0625 C14.89271484 24.05798828 13.84792969 24.05347656 12.77148438 24.04882812 C10.1809334 24.03699913 7.59049441 24.02051689 5 24 C4.50844748 33.98365272 4.50844748 33.98365272 8 43.03125 C10.79410907 45.78953716 13.47454618 48.23727309 17 50 C17 50.66 17 51.32 17 52 C17.66 52 18.32 52 19 52 C19 52.66 19 53.32 19 54 C19.57234375 54.24363281 20.1446875 54.48726563 20.734375 54.73828125 C23.40433538 56.22517298 25.13829007 57.98083908 27.25 60.1875 C30.09914013 63.10658629 32.96370846 65.90988554 36.0625 68.5625 C39.57409769 71.57244088 42.81464178 74.78011606 46.0390625 78.09375 C47.91459973 79.91698141 49.86477765 81.47200285 51.9375 83.0625 C54.68091988 85.36019263 55.00587966 86.0192722 56.125 89.6875 C56 93 56 93 53 96 C50.03 96 47.06 96 44 96 C44 103.92 44 111.84 44 120 C47.86332031 119.96519531 47.86332031 119.96519531 51.8046875 119.9296875 C54.29345202 119.91409928 56.78221114 119.90194982 59.27099609 119.89013672 C61.00344265 119.88006624 62.73587216 119.86640911 64.46826172 119.84912109 C66.95544639 119.82491838 69.44240675 119.81352761 71.9296875 119.8046875 C72.70682098 119.79436493 73.48395447 119.78404236 74.28463745 119.77340698 C76.19125493 119.77300729 78.09731036 119.8776786 80 120 C82.59491025 122.59491025 82.23591161 124.36245347 82.24884033 127.89689636 C82.2380545 129.13443413 82.2380545 129.13443413 82.22705078 130.39697266 C82.22734283 131.26533249 82.22763489 132.13369232 82.22793579 133.02836609 C82.22653917 135.90703218 82.21096242 138.78544146 82.1953125 141.6640625 C82.19158355 143.6566046 82.18873602 145.64914853 82.18673706 147.64169312 C82.17909132 152.89262939 82.15943477 158.14345548 82.1373291 163.39434814 C82.11689091 168.74986276 82.10773969 174.10539514 82.09765625 179.4609375 C82.07618975 189.97400681 82.04204249 200.48699425 82 211 C84.97 211 87.94 211 91 211 C91 214.3 91 217.6 91 221 C94.3 221 97.6 221 101 221 C101 224.3 101 227.6 101 231 C35.66 231 -29.68 231 -97 231 C-97 227.7 -97 224.4 -97 221 C-94.03 221 -91.06 221 -88 221 C-88.020625 219.535625 -88.04125 218.07125 -88.0625 216.5625 C-88.08392007 215.04167482 -88.07179964 213.51928038 -88 212 C-87 211 -87 211 -85.15234375 210.90234375 C-83.1015625 210.93489583 -81.05078125 210.96744792 -79 211 C-79.00444122 209.91893982 -79.00888245 208.83787964 -79.01345825 207.72406006 C-79.05398164 197.54174684 -79.0839735 187.35944996 -79.10362434 177.17707443 C-79.1140666 171.94207145 -79.12823394 166.70713351 -79.15087891 161.47216797 C-79.17259142 156.42121999 -79.1845653 151.37033461 -79.18975449 146.31934357 C-79.1934531 144.39120752 -79.20067544 142.46307495 -79.21146011 140.53496552 C-79.22595381 137.83671126 -79.22797882 135.13871653 -79.22705078 132.44042969 C-79.23424133 131.64129654 -79.24143188 130.84216339 -79.24884033 130.01881409 C-79.23338403 125.8725345 -78.90394729 123.80789457 -77 120 C-65.12 120 -53.24 120 -41 120 C-41 112.08 -41 104.16 -41 96 C-43.97 96 -46.94 96 -50 96 C-52.1875 93.875 -52.1875 93.875 -53 91 C-51.88442892 84.92056998 -48.30130284 81.97620479 -43.875 78.0625 C-43.19429443 77.4442334 -42.51358887 76.8259668 -41.81225586 76.18896484 C-37.84124016 72.59431049 -33.81576371 69.06193079 -29.75390625 65.5703125 C-27.05423407 63.15323407 -24.54538799 60.55392636 -22.00390625 57.97265625 C-19.42401784 55.43300002 -16.69916948 53.09121633 -13.953125 50.734375 C-11.36046044 48.43208887 -8.94777512 45.97666918 -6.54296875 43.48046875 C-5 42 -5 42 -2 40 C-1.67462316 37.0382316 -1.53493135 34.27534213 -1.5234375 31.30859375 C-1.50785797 30.44814957 -1.49227844 29.58770538 -1.47622681 28.70118713 C-1.42859585 25.94663411 -1.40090529 23.19233594 -1.375 20.4375 C-1.33856561 17.67927259 -1.297995 14.92119145 -1.25234985 12.1631012 C-1.22502961 10.44487528 -1.20371936 8.72654189 -1.18881226 7.00816345 C-1.11064765 1.11064765 -1.11064765 1.11064765 0 0 Z M-13 73 C-13 73.99 -13 74.98 -13 76 C-13 77.32 -13 78.64 -13 80 C-15.475 79.01 -15.475 79.01 -18 78 C-21.52234074 84.10634401 -21.52234074 84.10634401 -22 91 C-20.68 91 -19.36 91 -18 91 C-18 92.65 -18 94.3 -18 96 C-19.32 96 -20.64 96 -22 96 C-21.56453143 102.60718405 -21.56453143 102.60718405 -18 108 C-16.35 107.34 -14.7 106.68 -13 106 C-12.17361624 108.89234315 -12 110.88742431 -12 114 C-8.14243493 116.15305957 -5.44870215 117.39253254 -1 117 C-1 115.35 -1 113.7 -1 112 C0.65 112 2.3 112 4 112 C4 113.65 4 115.3 4 117 C9.71241466 116.61271765 12.73688282 116.12989477 17 112 C16.34 111.34 15.68 110.68 15 110 C15.375 107.875 15.375 107.875 16 106 C17.65 106.99 19.3 107.98 21 109 C24.33247818 102.8000918 24.33247818 102.8000918 26 96 C24.35 96 22.7 96 21 96 C21 94.35 21 92.7 21 91 C22.65 91 24.3 91 26 91 C24.91343356 86.06866002 23.8990762 82.21683811 21 78 C19.35 78.66 17.7 79.32 16 80 C16 77.66666667 16 75.33333333 16 73 C7.03767913 66.5272127 -3.75656337 67.88758073 -13 73 Z M-61 137 C-61 143.6 -61 150.2 -61 157 C-55.06 157 -49.12 157 -43 157 C-43 150.4 -43 143.8 -43 137 C-48.94 137 -54.88 137 -61 137 Z M-25 137 C-25 143.6 -25 150.2 -25 157 C-19.06 157 -13.12 157 -7 157 C-7 150.4 -7 143.8 -7 137 C-12.94 137 -18.88 137 -25 137 Z M11 137 C11 143.6 11 150.2 11 157 C16.94 157 22.88 157 29 157 C29 150.4 29 143.8 29 137 C23.06 137 17.12 137 11 137 Z M46 137 C46 143.6 46 150.2 46 157 C51.94 157 57.88 157 64 157 C64 150.4 64 143.8 64 137 C58.06 137 52.12 137 46 137 Z M-61 175 C-61 181.93 -61 188.86 -61 196 C-55.06 196 -49.12 196 -43 196 C-43 189.07 -43 182.14 -43 175 C-48.94 175 -54.88 175 -61 175 Z M-25 175 C-25 190.18 -25 205.36 -25 221 C-17.41 221 -9.82 221 -2 221 C-2 205.82 -2 190.64 -2 175 C-9.59 175 -17.18 175 -25 175 Z M5 175 C5 190.18 5 205.36 5 221 C12.92 221 20.84 221 29 221 C29 205.82 29 190.64 29 175 C21.08 175 13.16 175 5 175 Z M46 175 C46 181.93 46 188.86 46 196 C51.94 196 57.88 196 64 196 C64 189.07 64 182.14 64 175 C58.06 175 52.12 175 46 175 Z " fill="#F22B0C" transform="translate(598,321)"/>
<path d="M0 0 C120.12 0 240.24 0 364 0 C364.0928125 55.2853125 364.0928125 55.2853125 364.1875 111.6875 C364.21481201 123.29510498 364.24212402 134.90270996 364.27026367 146.86206055 C364.28381348 161.11291504 364.28381348 161.11291504 364.28633118 167.79914856 C364.28910912 172.43660348 364.30028326 177.07395379 364.31672668 181.71138 C364.33750286 187.65061492 364.34343712 193.58970057 364.33921683 199.52896845 C364.34009762 201.69372669 364.34592761 203.85849086 364.35764539 206.02321756 C364.45184605 224.29373667 362.65259419 241.93444272 358.1875 259.6875 C357.79957275 261.25673218 357.79957275 261.25673218 357.40380859 262.85766602 C346.24900554 306.9870398 322.54482334 346.55624131 291.84765625 379.90625 C289.86054661 382.06333263 289.86054661 382.06333263 288 385 C287.34 385 286.68 385 286 385 C285.7525 385.61875 285.505 386.2375 285.25 386.875 C283.76259631 389.40358627 282.56321991 389.71839004 280 391 C278.73195434 393.0335948 278.73195434 393.0335948 278 395 C277.34 395 276.68 395 276 395 C276 395.66 276 396.32 276 397 C274.7421875 398.3046875 274.7421875 398.3046875 272.875 399.875 C272.14152344 400.49632812 271.40804688 401.11765625 270.65234375 401.7578125 C269.77707031 402.49773437 268.90179687 403.23765625 268 404 C266.95809095 404.91230162 265.91782246 405.82647913 264.87890625 406.7421875 C244.87652313 424.28915358 207.81286831 456.0824031 180.046875 454.8203125 C175.85812259 454.11589314 172.07984563 452.73044772 168.1875 451.0625 C167.45885742 450.7538501 166.73021484 450.4452002 165.97949219 450.12719727 C143.63202551 440.44820622 123.35215004 427.31338617 104.82470703 411.54833984 C103.0509848 410.04326272 101.2605807 408.56072636 99.46484375 407.08203125 C88.05429627 397.60178539 75.70991091 387.09371941 67 375 C67 374.34 67 373.68 67 373 C66.34 373 65.68 373 65 373 C63.28412735 371.05964938 61.69765026 369.1152629 60.125 367.0625 C59.6395874 366.43424316 59.1541748 365.80598633 58.65405273 365.15869141 C48.08267766 351.36022937 38.67818297 337.05995556 30 322 C29.62391602 321.3591748 29.24783203 320.71834961 28.86035156 320.05810547 C11.41078511 290.1808431 -0.23833843 252.035146 -0.12025452 217.2999115 C-0.12111053 216.3674913 -0.12196655 215.43507111 -0.12284851 214.47439575 C-0.12449407 211.36303756 -0.11899579 208.25173407 -0.11352539 205.14038086 C-0.11321885 202.86649102 -0.1133529 200.59260108 -0.11389065 198.31871128 C-0.11411593 192.24244702 -0.10833001 186.16620254 -0.10128021 180.08994293 C-0.0955753 174.38324421 -0.09531655 168.67655025 -0.09460449 162.96984863 C-0.0893621 146.29239648 -0.07540091 129.61494799 -0.0625 112.9375 C-0.041875 75.668125 -0.02125 38.39875 0 0 Z M12 12 C11.938125 46.175625 11.87625 80.35125 11.8125 115.5625 C11.78518799 126.31658447 11.75787598 137.07066895 11.72973633 148.15063477 C11.7196973 157.86870432 11.7196973 157.86870432 11.71366882 167.58677673 C11.71089639 171.8841475 11.69974487 176.18140483 11.68327332 180.47874451 C11.66243876 185.98879534 11.65657327 191.49868521 11.66078317 197.00877178 C11.65990506 199.0131346 11.65411037 201.01750404 11.64235461 203.02183259 C11.54024571 221.30542697 13.03237694 239.59983007 17.8125 257.3125 C18.07111816 258.30266113 18.32973633 259.29282227 18.59619141 260.31298828 C29.60005801 301.62914158 51.1251472 336.88239943 79 369 C79.72703125 369.84046875 80.4540625 370.6809375 81.203125 371.546875 C90.08130747 381.60881513 99.5883075 391.51075895 110 400 C110.94230469 400.78117187 111.88460937 401.56234375 112.85546875 402.3671875 C130.65370728 416.87831553 150.28103576 429.60934741 171.375 438.75 C172.58748413 439.30856689 172.58748413 439.30856689 173.82446289 439.87841797 C179.36705353 442.15669205 182.87630409 442.12268079 188.49511719 440.05517578 C189.32172852 439.70696777 190.14833984 439.35875977 191 439 C191.80856445 438.6685498 192.61712891 438.33709961 193.45019531 437.99560547 C195.97738298 436.90914626 198.45811762 435.75390076 200.9375 434.5625 C201.84064941 434.12929443 202.74379883 433.69608887 203.67431641 433.24975586 C222.81297784 423.84740003 240.21762418 411.24847064 256.29296875 397.3125 C259 395 259 395 261.36328125 393.3125 C261.90339844 392.879375 262.44351563 392.44625 263 392 C263 391.34 263 390.68 263 390 C263.59530518 389.72921631 264.19061035 389.45843262 264.80395508 389.17944336 C266.97403559 388.01394487 268.39984624 386.85807034 270.13671875 385.12890625 C270.70938477 384.56026855 271.28205078 383.99163086 271.87207031 383.40576172 C272.47116211 382.79748535 273.07025391 382.18920898 273.6875 381.5625 C274.31108398 380.93359863 274.93466797 380.30469727 275.57714844 379.65673828 C279.94350457 375.20115759 284.0043077 370.58685323 287.87109375 365.6875 C290.11635885 362.8531103 292.45908438 360.12002994 294.8125 357.375 C327.70369327 317.82422973 352.31318723 265.00442908 352.12025452 212.82504272 C352.12111053 211.96101837 352.12196655 211.09699402 352.12284851 210.20678711 C352.12448953 207.33363715 352.11900334 204.46054688 352.11352539 201.58740234 C352.11321875 199.4836 352.11335308 197.37979755 352.11389065 195.27599525 C352.11411564 189.66181697 352.108336 184.04766017 352.10128021 178.43348694 C352.095569 173.15788712 352.0953162 167.88229242 352.09460449 162.60668945 C352.08936521 147.19612348 352.07540399 131.78556146 352.0625 116.375 C352.041875 81.93125 352.02125 47.4875 352 12 C239.8 12 127.6 12 12 12 Z " fill="#0B1D6F" transform="translate(418,239)"/>
<path d="M0 0 C2.40932384 2.40932384 2.49999481 3.63151409 3.12109375 6.94140625 C3.32839111 7.98353271 3.53568848 9.02565918 3.74926758 10.09936523 C3.97638428 11.24219971 4.20350098 12.38503418 4.4375 13.5625 C9.43175836 37.21588479 17.30012627 60.31658146 28 82 C28.68541313 83.42292802 29.37031519 84.84610234 30.0546875 86.26953125 C42.83662518 112.58219115 59.34242295 136.63079375 79.34765625 158.00390625 C81 160 81 160 81 162 C81.66 162 82.32 162 83 162 C84.48046875 163.50390625 84.48046875 163.50390625 86.1875 165.5625 C91.94429884 172.31841268 98.24848182 178.25129799 105 184 C105.83917969 184.72832031 106.67835938 185.45664062 107.54296875 186.20703125 C144.78200528 218.00146382 188.54237188 240.18508692 236 252 C236.14695312 250.64455078 236.14695312 250.64455078 236.296875 249.26171875 C237.56033082 243.4006876 241.93163041 239.49115017 246.6875 236.0625 C253.07225566 233.12896361 260.02891037 233.09356588 266.6875 235.125 C272.51004523 238.42078032 276.5742313 241.41286703 279.20703125 247.7109375 C279.71907104 248.9182251 279.71907104 248.9182251 280.24145508 250.14990234 C280.4917749 250.76043457 280.74209473 251.3709668 281 252 C312.35833375 243.28855278 342.38980768 231.43067697 370 214 C370.62777344 213.60490234 371.25554687 213.20980469 371.90234375 212.80273438 C389.46026796 201.65107981 406.73724945 188.75274317 421.22265625 173.77734375 C423.53357248 171.46642752 426.02063473 169.40868793 428.53125 167.3203125 C430.29785909 165.73224369 431.60269121 163.91210677 433 162 C433.66 162 434.32 162 435 162 C435.37318359 161.14535156 435.37318359 161.14535156 435.75390625 160.2734375 C437.1896178 157.65405155 438.88707456 155.79778356 440.9375 153.625 C477.17547459 113.86709475 501.93105284 61.90339272 512.35253906 9.33569336 C512.63436035 7.94362671 512.63436035 7.94362671 512.921875 6.5234375 C513.08268555 5.69763184 513.24349609 4.87182617 513.40917969 4.02099609 C514 2 514 2 516 0 C519.625 0.375 519.625 0.375 523 1 C523.99344177 4.83617366 523.92140291 7.51910247 523.03125 11.3671875 C522.79365967 12.40584961 522.55606934 13.44451172 522.3112793 14.51464844 C522.04355713 15.62356445 521.77583496 16.73248047 521.5 17.875 C521.22518799 19.03032227 520.95037598 20.18564453 520.66723633 21.37597656 C508.22591086 72.627647 484.19967047 122.21962085 448 161 C446.74371685 162.41109784 445.49335362 163.8274965 444.25 165.25 C443.69441406 165.88421875 443.13882812 166.5184375 442.56640625 167.171875 C441.06857806 168.91996376 439.62695936 170.70382331 438.1875 172.5 C437.465625 173.325 436.74375 174.15 436 175 C435.34 175 434.68 175 434 175 C434 175.66 434 176.32 434 177 C432.49609375 178.48046875 432.49609375 178.48046875 430.4375 180.1875 C427.72517387 182.48728702 425.15033357 184.81054465 422.6875 187.375 C418.13084905 191.99336631 413.07836127 195.97438898 408 200 C406.53240234 201.175625 406.53240234 201.175625 405.03515625 202.375 C390.87520564 213.51725622 375.70073325 223.18408026 360 232 C359.31083496 232.38784668 358.62166992 232.77569336 357.91162109 233.17529297 C336.30773893 245.22798512 305.18862531 262 280 262 C279.814375 262.825 279.62875 263.65 279.4375 264.5 C277.0100518 270.41030865 273.21275884 274.6116023 267.8125 278 C261.12746394 279.75345208 254.07716732 280.31063401 247.625 277.4375 C242.37853285 274.34427041 238.87470785 270.18676964 236.625 264.5625 C236.41875 263.716875 236.2125 262.87125 236 262 C234.87078125 261.88398437 233.7415625 261.76796875 232.578125 261.6484375 C197.78233493 257.24178398 162.89161138 237.91662875 134 219 C133.27345215 218.5270752 132.5469043 218.05415039 131.79833984 217.56689453 C117.56892557 208.2428052 104.48271097 197.54551063 92 186 C90.95639353 185.0474487 89.91208206 184.09566941 88.8671875 183.14453125 C87.78628684 182.15904223 86.70555541 181.17336756 85.625 180.1875 C84.87428223 179.50276611 84.87428223 179.50276611 84.10839844 178.80419922 C78.11955691 173.31544013 78.11955691 173.31544013 76 171 C76 170.34 76 169.68 76 169 C75.34 169 74.68 169 74 169 C72.58984375 167.63671875 72.58984375 167.63671875 70.9375 165.6875 C70.31359375 164.95273437 69.6896875 164.21796875 69.046875 163.4609375 C68.37140625 162.64882813 67.6959375 161.83671875 67 161 C66.30390625 160.16726563 65.6078125 159.33453125 64.890625 158.4765625 C29.95314181 116.22946404 5.21525893 67.8930299 -6.5625 14.125 C-6.73128662 13.36437256 -6.90007324 12.60374512 -7.07397461 11.82006836 C-7.85509021 7.95973383 -8.31132802 4.76917235 -7 1 C-4.48718205 -0.25640898 -2.78302919 -0.20872719 0 0 Z " fill="#0B1D6E" transform="translate(342,536)"/>
<path d="M0 0 C12.54 0 25.08 0 38 0 C37.07123809 3.71504765 35.92849994 6.2489764 34.12109375 9.5859375 C33.2384082 11.22030762 33.2384082 11.22030762 32.33789062 12.88769531 C31.39719727 14.61391113 31.39719727 14.61391113 30.4375 16.375 C29.79967836 17.55802473 29.16230935 18.7412936 28.52539062 19.92480469 C25.85053395 24.87887016 23.16254235 29.81408653 20.22265625 34.6171875 C19.64656616 35.56585693 19.64656616 35.56585693 19.05883789 36.53369141 C18.07860118 38.1225925 17.07165145 39.6949296 16.0625 41.265625 C14.627454 44.95875808 15.55348964 46.35393736 17 50 C18.12580377 52.22899285 19.30335703 54.43228068 20.51953125 56.61328125 C21.03020393 57.53405708 21.03020393 57.53405708 21.55119324 58.47343445 C22.6335685 60.4224646 23.72287384 62.36751609 24.8125 64.3125 C25.53236656 65.6058608 26.25177153 66.89947863 26.97070312 68.19335938 C30.77457616 75.03667942 30.77457616 75.03667942 34.62646484 81.85302734 C35.31216553 83.06079834 35.31216553 83.06079834 36.01171875 84.29296875 C36.40190186 84.97254639 36.79208496 85.65212402 37.1940918 86.35229492 C38 88 38 88 38 90 C21.5 90 5 90 -12 90 C-6 83 -6 83 -3.16621399 80.54548645 C-0.3246424 77.20639714 -0.28971087 74.46722345 -0.34057617 70.2722168 C-0.33009247 69.51070816 -0.31960876 68.74919952 -0.30880737 67.96461487 C-0.28011113 65.45906558 -0.286342 62.95490257 -0.29296875 60.44921875 C-0.27985033 58.70756808 -0.26454566 56.96593262 -0.24714661 55.22431946 C-0.20730022 50.64907809 -0.19710642 46.07423475 -0.19311523 41.49884033 C-0.18214121 36.00455166 -0.13428914 30.51047501 -0.09262848 25.01634979 C-0.03352006 16.67738791 -0.02122018 8.33953203 0 0 Z " fill="#0B1D6F" transform="translate(778,862)"/>
<path d="M0 0 C12.54 0 25.08 0 38 0 C37.94457031 5.43082031 37.88914062 10.86164062 37.83203125 16.45703125 C37.82141902 19.91623678 37.81407103 23.37484331 37.81835938 26.83398438 C37.82484604 32.31415849 37.81984295 37.79249582 37.74291992 43.2722168 C37.68159271 47.69510453 37.67471784 52.1151542 37.70416832 56.5383358 C37.70605872 58.21794138 37.68896548 59.8976885 37.65177345 61.57688332 C37.37858293 72.78433155 37.37858293 72.78433155 43.02546978 82.04979229 C44.5131935 83.43204946 46.0753303 84.73289329 47.63920593 86.02836609 C48.41826797 86.67900528 49.19733002 87.32964447 50 88 C50 88.66 50 89.32 50 90 C33.5 90 17 90 0 90 C1.65358932 85.8660267 3.51592247 82.19016565 5.75 78.375 C6.47347527 77.12417128 7.19612375 75.872864 7.91796875 74.62109375 C8.27294434 74.0060498 8.62791992 73.39100586 8.99365234 72.75732422 C10.87761021 69.46748221 12.68696968 66.13876657 14.4765625 62.796875 C15.6044664 60.72615912 16.77223492 58.67704775 17.9609375 56.640625 C18.61320312 55.50109375 19.26546875 54.3615625 19.9375 53.1875 C20.54464844 52.14980469 21.15179688 51.11210938 21.77734375 50.04296875 C23.27203044 46.32296578 23.17645086 44.81629182 22 41 C20.71810962 38.21790603 19.22484383 35.58537633 17.6875 32.9375 C17.25324707 32.17179688 16.81899414 31.40609375 16.37158203 30.6171875 C14.92484061 28.0719848 13.4640993 25.53525504 12 23 C10.33414776 20.11229231 8.66889274 17.22426315 7.00708008 14.33422852 C5.92977299 12.46340458 4.8476698 10.59533327 3.76049805 8.73022461 C3.26976807 7.88081299 2.77903809 7.03140137 2.2734375 6.15625 C1.83435059 5.40150391 1.39526367 4.64675781 0.94287109 3.86914062 C0 2 0 2 0 0 Z " fill="#0B1D6F" transform="translate(383,862)"/>
<path d="M0 0 C4.26814122 -0.19930257 8.53375138 -0.34361681 12.80517578 -0.43945312 C14.25454933 -0.47943584 15.70360528 -0.53384713 17.15185547 -0.60351562 C28.93067514 -1.15552096 28.93067514 -1.15552096 33.76098633 1.54174805 C37.0910593 4.57639042 39.32316045 7.41312816 39.88671875 11.95703125 C39.82097656 13.22933594 39.75523437 14.50164063 39.6875 15.8125 C39.65011719 17.09769531 39.61273437 18.38289062 39.57421875 19.70703125 C38.99962335 23.00215997 38.65834568 24.08285526 36 26 C37.28321787 28.93147782 37.28321787 28.93147782 39.53125 31.125 C41.89798221 34.14636027 41.63365413 37.5038088 41.6875 41.1875 C41.76774414 42.28288086 41.76774414 42.28288086 41.84960938 43.40039062 C41.92637261 47.96174274 40.86697418 50.93259602 38.01953125 54.51953125 C31.83592152 60.07756178 23.76408685 58.84983771 16 58.5 C14.44670653 58.45981465 12.89331287 58.42332273 11.33984375 58.390625 C7.55739664 58.30303019 3.77981436 58.16533508 0 58 C0 56.02 0 54.04 0 52 C1.98 52 3.96 52 6 52 C6 36.82 6 21.64 6 6 C4.02 6 2.04 6 0 6 C0 4.02 0 2.04 0 0 Z " fill="#F2F3F7" transform="translate(720,863)"/>
<path d="M0 0 C1.66009753 1.64679013 3.2665223 3.31521163 4.82421875 5.05859375 C2.13082754 8.43538274 -1.49483157 9.61958954 -5.42578125 11.05859375 C-6.49324585 11.44942139 -6.49324585 11.44942139 -7.58227539 11.84814453 C-24.81280919 17.94431082 -42.91172561 19.98552966 -60.17578125 13.05859375 C-69.28756227 8.60041671 -75.56454089 2.47545429 -81.17578125 -5.94140625 C-81.17578125 -6.93140625 -81.17578125 -7.92140625 -81.17578125 -8.94140625 C-54.8755579 -15.10104462 -22.03460273 -19.66103691 0 0 Z " fill="#0B1D6F" transform="translate(736.17578125,800.94140625)"/>
<path d="M0 0 C-1.07671004 6.99861528 -6.57268009 12.33430674 -11.93359375 16.50390625 C-25.63943876 26.25191367 -41.79327835 27.74765287 -58.07592773 25.22949219 C-66.94523346 23.64681652 -80.08192274 21.17860635 -86 14 C-76.23060216 2.31919823 -62.42882036 -2.62481525 -47.6875 -4.6875 C-31.81013628 -6.01768912 -15.2606679 -4.76895872 0 0 Z " fill="#0B1D6F" transform="translate(545,792)"/>
<path d="M0 0 C-2.93723249 6.76453542 -9.30486867 10.99637495 -15.75 14.17578125 C-21.92393825 16.43741488 -27.6591017 17.36486683 -34.1875 17.3125 C-35.29279053 17.30512817 -35.29279053 17.30512817 -36.42041016 17.29760742 C-54.10410793 16.92433171 -71.98595261 8.92954344 -85 -3 C-83.72421909 -6.82734273 -82.4858666 -7.16948077 -79 -9.0625 C-78.0925 -9.56910156 -77.185 -10.07570313 -76.25 -10.59765625 C-52.08127078 -21.02623052 -22.05478894 -11.40884522 0 0 Z " fill="#0B1D6F" transform="translate(478,759)"/>
<path d="M0 0 C-1.49985197 4.32310274 -4.72017905 6.14087081 -8.4375 8.4375 C-9.06930176 8.83219482 -9.70110352 9.22688965 -10.35205078 9.63354492 C-26.29836003 19.42326571 -44.73951582 25.06934032 -63.45703125 21.3046875 C-69.91121476 19.37249168 -75.00098274 16.49103398 -80 12 C-80.52722656 11.52949219 -81.05445313 11.05898438 -81.59765625 10.57421875 C-83 9.25 -83 9.25 -85 7 C-85 6.34 -85 5.68 -85 5 C-78.00635972 1.06345996 -71.01097581 -1.84308135 -63.375 -4.25 C-62.60051514 -4.49572754 -61.82603027 -4.74145508 -61.02807617 -4.99462891 C-40.7560552 -11.19307005 -18.00076558 -12.70642276 0 0 Z " fill="#0B1D6F" transform="translate(807,754)"/>
<path d="M0 0 C0.87624023 0.00902344 1.75248047 0.01804687 2.65527344 0.02734375 C25.38644509 0.62444129 45.43402617 13.2372019 62.4375 27.4375 C57.72043335 32.91538385 52.20803009 35.18065664 45.4375 37.4375 C24.09507183 38.7234864 7.73930747 31.8587415 -8.1484375 17.85546875 C-10.5625 15.4375 -10.5625 15.4375 -11.5625 12.4375 C-12.2225 12.4375 -12.8825 12.4375 -13.5625 12.4375 C-16.25 9.625 -16.25 9.625 -18.5625 6.4375 C-18.2325 5.4475 -17.9025 4.4575 -17.5625 3.4375 C-11.63696506 0.59832035 -6.51561618 -0.08109674 0 0 Z " fill="#0B1D6E" transform="translate(358.5625,685.5625)"/>
<path d="M0 0 C0.8559375 -0.02900391 1.711875 -0.05800781 2.59375 -0.08789062 C8.98594709 -0.15084408 13.63269684 1.2949475 19.25 4.3125 C11.62609415 20.21408774 -6.31682089 30.16560625 -22.20703125 36.25390625 C-32.87891321 39.17183956 -46.00095698 38.52865464 -55.75 33.3125 C-57.98928166 31.77162977 -59.79305285 30.21655669 -61.75 28.3125 C-45.63057105 11.69843153 -23.33304204 0.25887251 0 0 Z " fill="#0B1D6F" transform="translate(840.75,685.6875)"/>
<path d="M0 0 C-1.74681941 12.69355437 -14.52772895 26.98306571 -24.30859375 34.7421875 C-30.38077132 39.24234378 -36.76865997 42.76267933 -44 45 C-44.60328125 45.19078125 -45.2065625 45.3815625 -45.828125 45.578125 C-54.67861685 47.29728529 -63.74862865 46.47426162 -72 43 C-72 38.49925037 -72 38.49925037 -69.48046875 35.65234375 C-68.95259766 35.04712891 -68.42472656 34.44191406 -67.88085938 33.81835938 C-67.32205078 33.19767578 -66.76324219 32.57699219 -66.1875 31.9375 C-65.64029297 31.31294922 -65.09308594 30.68839844 -64.52929688 30.04492188 C-63.03496964 28.34772839 -61.53382355 26.66157727 -60 25 C-59.48606689 24.43869385 -58.97213379 23.8773877 -58.44262695 23.29907227 C-57 22 -57 22 -55 22 C-55 21.34 -55 20.68 -55 20 C-40.39991671 7.11128179 -20.10256832 -4.8733499 0 0 Z " fill="#0B1D6F" transform="translate(897,615)"/>
<path d="M0 0 C3.51681916 2.82705629 6.74953135 5.87498803 10 9 C11.32867169 10.10977176 12.66180992 11.21422448 14 12.3125 C17.50045842 15.36731484 20.54747339 18.72631943 23.5625 22.25 C24.01689453 22.76989502 24.47128906 23.28979004 24.93945312 23.82543945 C26.19140625 25.328125 26.19140625 25.328125 28 28 C27.67 28.99 27.34 29.98 27 31 C17.52735319 35.40968041 6.69456424 35.43768063 -3.25 32.4375 C-21.83864127 25.32640905 -34.83344661 10.38192537 -44.0390625 -6.7578125 C-45 -9 -45 -9 -45 -12 C-28.92460046 -15.93621933 -13.12525943 -8.71936248 0 0 Z " fill="#0B1D6F" transform="translate(348,627)"/>
<path d="M0 0 C13.3086408 -1.1090534 23.13038952 5.72362664 33 14 C33.69609375 14.58136719 34.3921875 15.16273438 35.109375 15.76171875 C44.51170919 24.40642684 51.71623058 36.1807231 57.8125 47.3125 C58.32780273 48.23591187 58.32780273 48.23591187 58.85351562 49.17797852 C60.21213154 51.77028432 61.06642389 53.46602097 60.69921875 56.41796875 C60.46847656 56.94003906 60.23773438 57.46210937 60 58 C44.30839837 58.70878 33.52238348 56.08613391 21.48974609 45.41064453 C11.09543895 35.5682475 2.56342633 19.20565423 0 5 C-0.03765517 3.33375876 -0.04660182 1.66601502 0 0 Z " fill="#0B1D6E" transform="translate(283,534)"/>
<path d="M0 0 C0.79921875 0.00902344 1.5984375 0.01804687 2.421875 0.02734375 C3.02515625 0.03894531 3.6284375 0.05054688 4.25 0.0625 C3.06856646 19.75305897 -8.19918217 36.12377679 -22.03515625 49.2265625 C-32.11872054 57.82778794 -43.07403379 58.68590817 -55.75 58.0625 C-56.50152828 55.83556747 -56.89112346 54.51428856 -56.18017578 52.23828125 C-55.69266846 51.31595703 -55.69266846 51.31595703 -55.1953125 50.375 C-54.83244141 49.68220947 -54.46957031 48.98941895 -54.09570312 48.27563477 C-53.69287109 47.54530029 -53.29003906 46.81496582 -52.875 46.0625 C-52.46443359 45.30573975 -52.05386719 44.54897949 -51.63085938 43.76928711 C-41.73060988 25.9356125 -26.69931298 6.98979179 -6.65625 0.37109375 C-4.40821814 0.00717056 -2.27635594 -0.03347582 0 0 Z " fill="#0B1D6F" transform="translate(912.75,533.9375)"/>
<path d="M0 0 C5.61 0 11.22 0 17 0 C17 2.31 17 4.62 17 7 C15.35 7.33 13.7 7.66 12 8 C14.21675669 17.78345131 16.59660788 27.48177026 19.42456055 37.10888672 C20.42473326 40.58143617 21 43.35368956 21 47 C21.66 47 22.32 47 23 47 C23.13809082 46.12762695 23.27618164 45.25525391 23.41845703 44.35644531 C24.32966393 39.09730491 25.62539314 33.93739238 26.875 28.75 C27.13152344 27.66847656 27.38804687 26.58695313 27.65234375 25.47265625 C29.22752001 18.91074107 30.9773929 12.43836148 33 6 C32.01 6 31.02 6 30 6 C30 4.02 30 2.04 30 0 C35.61 0 41.22 0 47 0 C47 2.31 47 4.62 47 7 C46.01 7 45.02 7 44 7 C46.13415741 16.37667033 48.41017045 25.6533764 51.1171875 34.8828125 C52.2531853 38.89399057 53.15554474 42.91846626 54 47 C56.30553164 40.65978798 57.93614948 34.24957703 59.43945312 27.68212891 C61.11273261 20.40400424 63.02891835 13.20283561 65 6 C63.35 6 61.7 6 60 6 C60 4.02 60 2.04 60 0 C65.28 0 70.56 0 76 0 C76 1.98 76 3.96 76 6 C75.01 6.33 74.02 6.66 73 7 C72.08290243 9.16791621 72.08290243 9.16791621 71.53515625 11.85546875 C71.29450439 12.86375732 71.05385254 13.8720459 70.8059082 14.91088867 C70.5605835 15.99217041 70.31525879 17.07345215 70.0625 18.1875 C69.53827347 20.39626492 69.01224066 22.60460195 68.484375 24.8125 C68.23107422 25.88242187 67.97777344 26.95234375 67.71679688 28.0546875 C66.84572897 31.63389842 65.85621511 35.1549258 64.8125 38.6875 C62.93705584 45.06714897 61.42391063 51.50610456 60 58 C56.7 58 53.4 58 50 58 C47.61170025 52.03271192 45.97025032 46.13951763 44.5625 39.875 C42.6285519 31.49603509 40.47803512 23.23704411 38 15 C36.18587732 22.16527786 34.38582326 29.33264625 32.69140625 36.52734375 C32.47250732 37.45651611 32.2536084 38.38568848 32.02807617 39.34301758 C31.60000972 41.16650064 31.17430528 42.99054016 30.7512207 44.81518555 C29.69912183 49.29672619 28.5517476 53.65795397 27 58 C23.7 58 20.4 58 17 58 C15.14277305 51.08456082 13.29866163 44.16631737 11.50390625 37.234375 C11.24496582 36.23543213 10.98602539 35.23648926 10.71923828 34.20727539 C10.20947982 32.23813036 9.7012673 30.2685843 9.19482422 28.29858398 C7.78257974 22.84656459 6.25962761 17.45488887 4.55297852 12.0871582 C4 10 4 10 4 7 C2.68 7 1.36 7 0 7 C0 4.69 0 2.38 0 0 Z " fill="#F3F4F8" transform="translate(586,863)"/>
<path d="M0 0 C5.14698873 13.83253221 5.86107515 26.24901599 0 40 C-6.27416055 52.23948936 -15.96967308 61.41356403 -28 68 C-30.859375 68.71875 -30.859375 68.71875 -33 69 C-36.98859748 51.26209087 -31.17633152 34.94683231 -22 20 C-18.17090938 14.16399566 -18.17090938 14.16399566 -16 12 C-15.34 12 -14.68 12 -14 12 C-13.64228516 11.14148438 -13.64228516 11.14148438 -13.27734375 10.265625 C-11.73310409 7.52660663 -9.91199704 5.83329787 -7.5625 3.75 C-6.78003906 3.04359375 -5.99757813 2.3371875 -5.19140625 1.609375 C-3 0 -3 0 0 0 Z " fill="#0B1D6E" transform="translate(682,708)"/>
<path d="M0 0 C7.22630864 1.06318104 13.12930914 8.68673818 17.5625 14.0625 C28.6026512 29.13152155 35.640496 44.93259563 34 64 C33.69655557 65.6723667 33.37288257 67.34173359 33 69 C18.5607541 64.75820373 8.10157318 53.94141684 0.69921875 41.2890625 C-5.16136357 29.94513074 -5.71502674 17.78807688 -2 5.625 C-1.35321929 3.74304778 -0.69397741 1.86506429 0 0 Z " fill="#0B1D6F" transform="translate(518,708)"/>
<path d="M0 0 C9.41335584 8.52071002 13.28827339 23.63300574 14.22753906 35.99462891 C15.15056692 55.27662271 13.28967951 72.30183588 3 89 C0.78125 91.390625 0.78125 91.390625 -1 93 C-6.87838406 79.00384748 -8.234889 64.21294149 -8.25 49.1875 C-8.25100708 48.49536407 -8.25201416 47.80322815 -8.25305176 47.09011841 C-8.21480692 8.21480692 -8.21480692 8.21480692 0 0 Z " fill="#0B1D6F" transform="translate(863,440)"/>
<path d="M0 0 C0.66 0.33 1.32 0.66 2 1 C2.93787247 3.89477945 3.74980161 6.74353967 4.5 9.6875 C4.81904297 10.8640918 4.81904297 10.8640918 5.14453125 12.06445312 C8.30415406 24.20864756 9.36673218 36.29134128 9.3125 48.8125 C9.30730347 50.7776355 9.30730347 50.7776355 9.30200195 52.7824707 C9.1490389 66.43505716 6.98171633 78.9252861 3 92 C2.01 92 1.02 92 0 92 C-13.30840241 74.30692673 -15.05082716 51.81762559 -12.72753906 30.5 C-11.24701856 21.10519565 -6.97135087 6.97135087 0 0 Z " fill="#0B1D6F" transform="translate(336,440)"/>
<path d="M0 0 C3.00676674 1.05660784 3.95343377 1.92518868 5.66796875 4.6796875 C6.42013672 6.26136719 6.42013672 6.26136719 7.1875 7.875 C7.69667969 8.92429687 8.20585938 9.97359375 8.73046875 11.0546875 C12.82025566 20.54299312 12.46712203 33.68833167 9.4375 43.4375 C8.68251451 45.31582031 7.86883598 47.17155413 7 49 C6.53722656 49.98097656 6.07445312 50.96195313 5.59765625 51.97265625 C1.19980705 60.30598908 -4.88107898 66.90732708 -12 73 C-12.66 73 -13.32 73 -14 73 C-18.54020597 61.3221679 -18.54020597 61.3221679 -19 55 C-19.0515625 54.31164062 -19.103125 53.62328125 -19.15625 52.9140625 C-19.89407974 34.40683321 -13.0339063 16.58761937 -2 2 C-1.34 1.34 -0.68 0.68 0 0 Z " fill="#0B1D6F" transform="translate(727,673)"/>
<path d="M0 0 C7.50954439 2.89207836 11.53273747 13.35363497 14.87109375 20.26171875 C21.0972724 35.36397214 23.63811054 52.5607919 18.19921875 68.3203125 C17.52221056 69.90534588 16.770801 71.458398 16 73 C4.54293071 68.05979581 -2.53471219 55.30225204 -7.125 44.3046875 C-11.12448031 32.34470312 -11.09921551 19.37943535 -5.49609375 7.92578125 C-1.97049825 1.97049825 -1.97049825 1.97049825 0 0 Z " fill="#0B1D6F" transform="translate(471,673)"/>
<path d="M0 0 C8.40974965 4.60533909 12.8568884 13.16705047 16 22 C20.09984923 37.9378245 15.68414242 52.89100443 7.9375 66.75 C6.40777162 69.31599599 4.86225655 71.67217931 3 74 C-1.79452604 72.40182465 -3.17931103 68.11955148 -5.34765625 63.80078125 C-12.74822517 47.73512044 -11.46605404 27.8504385 -5.7578125 11.42578125 C-4.09897517 7.35721276 -2.43994927 3.6599239 0 0 Z " fill="#0B1D6F" transform="translate(766,628)"/>
<path d="M0 0 C7.26814074 6.44221566 9.98178853 20.4875523 10.87109375 29.796875 C11.82203281 46.04928797 8.82315323 58.89689089 1 73 C-0.32 73 -1.64 73 -3 73 C-13.97368141 59.71155767 -17.35982729 42.82055699 -16 26 C-14.28752259 16.52138298 -9.33401152 7.28758218 -1.75 1.19140625 C-1.1725 0.79824219 -0.595 0.40507813 0 0 Z " fill="#0B1D6E" transform="translate(433,628)"/>
<path d="M0 0 C5.61 0 11.22 0 17 0 C19.18720705 4.7830697 21.37433673 9.56617462 23.5612793 14.34936523 C24.30309754 15.97178107 25.04495844 17.59417739 25.78686523 19.21655273 C26.86193264 21.56749245 27.93683932 23.91850559 29.01171875 26.26953125 C29.33589279 26.97833939 29.66006683 27.68714752 29.99406433 28.41743469 C32.67152277 34.27433551 35.33513723 40.13730191 38 46 C38.33 32.8 38.66 19.6 39 6 C37.02 6 35.04 6 33 6 C33 4.02 33 2.04 33 0 C39.27 0 45.54 0 52 0 C52 1.98 52 3.96 52 6 C50.02 6 48.04 6 46 6 C46 23.16 46 40.32 46 58 C42.37 58 38.74 58 35 58 C32.32904788 52.25330218 29.65982456 46.50580579 26.9921875 40.75756836 C26.0847829 38.80292162 25.17690949 36.84849245 24.26855469 34.89428711 C22.96165093 32.0824422 21.65644502 29.26981461 20.3515625 26.45703125 C19.94628326 25.58601273 19.54100403 24.7149942 19.1234436 23.81758118 C18.74320038 22.997108 18.36295715 22.17663483 17.97119141 21.33129883 C17.63809967 20.61404129 17.30500793 19.89678375 16.96182251 19.15779114 C15.91056306 16.7993536 14.95897748 14.39744369 14 12 C13.67 25.2 13.34 38.4 13 52 C14.65 52 16.3 52 18 52 C18 53.98 18 55.96 18 58 C12.39 58 6.78 58 1 58 C1 56.02 1 54.04 1 52 C2.65 52 4.3 52 6 52 C6 36.82 6 21.64 6 6 C4.02 6 2.04 6 0 6 C0 4.02 0 2.04 0 0 Z " fill="#F8F9FB" transform="translate(497,863)"/>
<path d="M0 0 C10.16462453 4.53777881 17.33410391 10.71851215 22 21 C24.58452647 27.90135075 25.54922444 34.27611967 25.5 41.625 C25.49577026 43.04872925 25.49577026 43.04872925 25.49145508 44.5012207 C25.29713091 53.08543667 24.20095614 64.14971575 18.33203125 70.92578125 C17.89246094 71.28027344 17.45289063 71.63476562 17 72 C3.5757085 59.80229351 -2.01538709 44.61372851 -3.22265625 26.6953125 C-3.46251654 17.49719164 -1.94981537 8.93665376 0 0 Z " fill="#0B1D6F" transform="translate(793,576)"/>
<path d="M0 0 C7.51384072 12.84929904 4.41985396 32.19713577 1 46 C-2.33763323 56.77089698 -8.00768236 65.20093057 -17 72 C-25.28488225 56.85866348 -26.76761183 40.80829736 -22.21875 24.13671875 C-18.26291676 13.1729223 -10.46139968 4.98714176 0 0 Z " fill="#0B1D6F" transform="translate(406,576)"/>
<path d="M0 0 C0.98960476 20.42434259 -3.42322367 40.11176534 -17 56 C-21.44991558 60.62338687 -25.52154278 64.6710857 -32 66 C-34.34040896 60.43336993 -34.34703526 55.24856017 -34.3125 49.3125 C-34.30758545 48.32733398 -34.3026709 47.34216797 -34.29760742 46.32714844 C-34.18720453 39.49009568 -33.66913877 33.36486938 -31 27 C-30.67128906 26.16855469 -30.34257812 25.33710937 -30.00390625 24.48046875 C-25.51021652 14.35800504 -18.21129766 6.39546459 -8 2 C-2.76190476 0 -2.76190476 0 0 0 Z " fill="#0B1D6E" transform="translate(391,519)"/>
<path d="M0 0 C11.20161716 2.19844823 19.46598348 7.57044263 26 17 C32.17138547 27.25047785 34.25013954 36.90253467 34.3125 48.75 C34.31805908 49.64952393 34.32361816 50.54904785 34.3293457 51.47583008 C34.27279351 56.6897492 33.69256512 61.06391369 32 66 C21.55320667 63.08884714 14.24871934 54.15505521 9 45 C3.17600945 33.16158869 -0.21757962 20.81869682 -0.0625 7.625 C-0.05798828 6.88894531 -0.05347656 6.15289063 -0.04882812 5.39453125 C-0.03715142 3.59631842 -0.01922011 1.79814803 0 0 Z " fill="#0B1D6F" transform="translate(809,519)"/>
<path d="M0 0 C5.61 0 11.22 0 17 0 C17 1.98 17 3.96 17 6 C15.35 6 13.7 6 12 6 C12.09337866 11.94510801 12.19943682 17.88980119 12.31738281 23.83447266 C12.35572521 25.85784666 12.39056871 27.88129006 12.421875 29.90478516 C12.46741169 32.80917203 12.52542409 35.71307894 12.5859375 38.6171875 C12.59748871 39.52556366 12.60903992 40.43393982 12.62094116 41.36984253 C12.64081085 42.21056305 12.66068054 43.05128357 12.68115234 43.91748047 C12.69447601 44.65916473 12.70779968 45.400849 12.7215271 46.16500854 C12.85199729 48.2473364 12.85199729 48.2473364 15 50 C17.66798565 50.19936596 20.20906728 50.27831079 22.875 50.25 C23.95587891 50.26160156 23.95587891 50.26160156 25.05859375 50.2734375 C29.16819045 50.25830086 31.23335327 49.88332336 35 48 C35 34.14 35 20.28 35 6 C33.02 6 31.04 6 29 6 C29 4.02 29 2.04 29 0 C34.61 0 40.22 0 46 0 C46 2.31 46 4.62 46 7 C44.68 7 43.36 7 42 7 C42.04189453 8.26070312 42.08378906 9.52140625 42.12695312 10.8203125 C42.27239091 15.52378419 42.36382109 20.22705984 42.43945312 24.93212891 C42.47954176 26.963394 42.53403054 28.99443028 42.60351562 31.02490234 C43.23883202 50.07505139 43.23883202 50.07505139 38.66015625 55.3125 C33.75737133 58.89158729 28.84604415 59.19227805 22.9375 59 C21.98294922 59.0309375 21.02839844 59.061875 20.04492188 59.09375 C19.11099609 59.0834375 18.17707031 59.073125 17.21484375 59.0625 C16.38073975 59.05347656 15.54663574 59.04445313 14.68725586 59.03515625 C10.16230273 57.29210171 7.454567 54.12260396 5 50 C4.12126262 46.48850598 4.17512712 43.1958459 4.31640625 39.59375 C4.32631088 38.6284436 4.33621552 37.66313721 4.34642029 36.6685791 C4.38534437 33.61078496 4.4731216 30.55669321 4.5625 27.5 C4.59764241 25.41671882 4.62957627 23.3333809 4.65820312 21.25 C4.73503415 16.16525843 4.85566144 11.08325499 5 6 C3.35 6 1.7 6 0 6 C0 4.02 0 2.04 0 0 Z " fill="#F5F5F9" transform="translate(439,863)"/>
<path d="M0 0 C11.88 0 23.76 0 36 0 C36 4.95 36 9.9 36 15 C34.02 15 32.04 15 30 15 C30 12.03 30 9.06 30 6 C24.06 6 18.12 6 12 6 C12 12.6 12 19.2 12 26 C17.94 26 23.88 26 30 26 C30 27.98 30 29.96 30 32 C24.06 32 18.12 32 12 32 C12 38.6 12 45.2 12 52 C17.94 52 23.88 52 30 52 C30 49.03 30 46.06 30 43 C31.98 43 33.96 43 36 43 C36 47.95 36 52.9 36 58 C24.12 58 12.24 58 0 58 C0 56.02 0 54.04 0 52 C1.65 52 3.3 52 5 52 C5 36.82 5 21.64 5 6 C3.35 6 1.7 6 0 6 C0 4.02 0 2.04 0 0 Z " fill="#FBFBFC" transform="translate(671,863)"/>
<path d="M0 0 C6.27 0 12.54 0 19 0 C19 1.98 19 3.96 19 6 C17.02 6 15.04 6 13 6 C13 21.18 13 36.36 13 52 C14.98 52 16.96 52 19 52 C19 53.98 19 55.96 19 58 C12.73 58 6.46 58 0 58 C0 56.02 0 54.04 0 52 C1.98 52 3.96 52 6 52 C6 36.82 6 21.64 6 6 C4.02 6 2.04 6 0 6 C0 4.02 0 2.04 0 0 Z " fill="#FAFBFC" transform="translate(560,863)"/>
<path d="M0 0 C2.7225 -0.0825 5.445 -0.165 8.25 -0.25 C9.10110352 -0.28641602 9.95220703 -0.32283203 10.82910156 -0.36035156 C14.4336128 -0.41328375 16.43677054 -0.36732356 19.515625 1.640625 C21.38410389 4.61052303 21.53494773 6.5052272 21.5 10 C21.5103125 11.03125 21.520625 12.0625 21.53125 13.125 C21 16 21 16 19.515625 18.359375 C15.8059361 20.77873732 12.56858813 20.43477867 8.25 20.25 C5.5275 20.1675 2.805 20.085 0 20 C0 13.4 0 6.8 0 0 Z " fill="#0C1E6F" transform="translate(733,894)"/>
<path d="M0 0 C2.578125 -0.0825 5.15625 -0.165 7.8125 -0.25 C8.62050049 -0.28641602 9.42850098 -0.32283203 10.26098633 -0.36035156 C15.48328693 -0.44159172 15.48328693 -0.44159172 17.98828125 1.69921875 C19.1446276 4.32890214 19.40095539 6.1944291 19.375 9.0625 C19.38273438 9.91972656 19.39046875 10.77695312 19.3984375 11.66015625 C19 14 19 14 17.98828125 15.796875 C14.79484852 17.72924687 11.42239673 17.30952164 7.8125 17.1875 C5.234375 17.125625 2.65625 17.06375 0 17 C0 11.39 0 5.78 0 0 Z " fill="#0C1E6F" transform="translate(733,870)"/>
<path d="M0 0 C1.65 0 3.3 0 5 0 C5 5.94 5 11.88 5 18 C9.29 18 13.58 18 18 18 C18 19.65 18 21.3 18 23 C12.06 23 6.12 23 0 23 C0 15.41 0 7.82 0 0 Z " fill="#F22B0C" transform="translate(597,394)"/>
</svg>
